<svg width="20" height="20" viewBox="0 0 18 18" fill="none" xmlns="http://www.w3.org/2000/svg">
<path d="M4 2V17.5486H15.9605V5.94337L15.7924 5.75619L12.2043 2.16804L12.0171 2H4ZM5.19605 3.19605H11.1763V6.78419H14.7644V16.3526H5.19605V3.19605ZM12.3723 4.05601L13.9051 5.58814H12.3723V4.05601Z" fill="#E683FF"/>
<path d="M10 9V12.5167C9.80333 12.4033 9.57667 12.3333 9.33333 12.3333C8.59667 12.3333 8 12.93 8 13.6667C8 14.4033 8.59667 15 9.33333 15C10.07 15 10.6667 14.4033 10.6667 13.6667V10.3333H12V9H10ZM9.33333 14.3333C8.96667 14.3333 8.66667 14.0333 8.66667 13.6667C8.66667 13.3 8.96667 13 9.33333 13C9.7 13 10 13.3 10 13.6667C10 14.0333 9.7 14.3333 9.33333 14.3333Z" fill="#E683FF"/>
</svg>
