<svg width="113" height="113" viewBox="0 0 113 113" fill="none" xmlns="http://www.w3.org/2000/svg">
<g opacity="0.15">
<rect x="113" y="5" width="5" height="5" transform="rotate(180 113 5)" fill="white"/>
<rect x="89" y="5" width="5" height="5" transform="rotate(180 89 5)" fill="white"/>
<rect x="101" y="5" width="5" height="5" transform="rotate(180 101 5)" fill="white"/>
<rect x="77" y="5" width="5" height="5" transform="rotate(180 77 5)" fill="white"/>
<rect x="113" y="29" width="5" height="5" transform="rotate(180 113 29)" fill="white"/>
<rect x="89" y="29" width="5" height="5" transform="rotate(180 89 29)" fill="white"/>
<rect x="101" y="29" width="5" height="5" transform="rotate(180 101 29)" fill="white"/>
<rect x="77" y="29" width="5" height="5" transform="rotate(180 77 29)" fill="white"/>
<rect x="113" y="53" width="5" height="5" transform="rotate(180 113 53)" fill="white"/>
<rect x="89" y="53" width="5" height="5" transform="rotate(180 89 53)" fill="white"/>
<rect x="101" y="53" width="5" height="5" transform="rotate(180 101 53)" fill="white"/>
<rect x="77" y="53" width="5" height="5" transform="rotate(180 77 53)" fill="white"/>
<rect x="113" y="77" width="5" height="5" transform="rotate(180 113 77)" fill="white"/>
<rect x="89" y="77" width="5" height="5" transform="rotate(180 89 77)" fill="white"/>
<rect x="101" y="77" width="5" height="5" transform="rotate(180 101 77)" fill="white"/>
<rect x="77" y="77" width="5" height="5" transform="rotate(180 77 77)" fill="white"/>
<rect x="113" y="101" width="5" height="5" transform="rotate(180 113 101)" fill="white"/>
<rect x="89" y="101" width="5" height="5" transform="rotate(180 89 101)" fill="white"/>
<rect x="101" y="101" width="5" height="5" transform="rotate(180 101 101)" fill="white"/>
<rect x="77" y="101" width="5" height="5" transform="rotate(180 77 101)" fill="white"/>
<rect x="65" y="5" width="5" height="5" transform="rotate(180 65 5)" fill="white"/>
<rect x="53" y="5" width="5" height="5" transform="rotate(180 53 5)" fill="white"/>
<rect x="65" y="29" width="5" height="5" transform="rotate(180 65 29)" fill="white"/>
<rect x="53" y="29" width="5" height="5" transform="rotate(180 53 29)" fill="white"/>
<rect x="65" y="53" width="5" height="5" transform="rotate(180 65 53)" fill="white"/>
<rect x="53" y="53" width="5" height="5" transform="rotate(180 53 53)" fill="white"/>
<rect x="65" y="77" width="5" height="5" transform="rotate(180 65 77)" fill="white"/>
<rect x="53" y="77" width="5" height="5" transform="rotate(180 53 77)" fill="white"/>
<rect x="65" y="101" width="5" height="5" transform="rotate(180 65 101)" fill="white"/>
<rect x="53" y="101" width="5" height="5" transform="rotate(180 53 101)" fill="white"/>
<rect x="113" y="17" width="5" height="5" transform="rotate(180 113 17)" fill="white"/>
<rect x="89" y="17" width="5" height="5" transform="rotate(180 89 17)" fill="white"/>
<rect x="101" y="17" width="5" height="5" transform="rotate(180 101 17)" fill="white"/>
<rect x="77" y="17" width="5" height="5" transform="rotate(180 77 17)" fill="white"/>
<rect x="113" y="41" width="5" height="5" transform="rotate(180 113 41)" fill="white"/>
<rect x="89" y="41" width="5" height="5" transform="rotate(180 89 41)" fill="white"/>
<rect x="101" y="41" width="5" height="5" transform="rotate(180 101 41)" fill="white"/>
<rect x="77" y="41" width="5" height="5" transform="rotate(180 77 41)" fill="white"/>
<rect x="113" y="65" width="5" height="5" transform="rotate(180 113 65)" fill="white"/>
<rect x="89" y="65" width="5" height="5" transform="rotate(180 89 65)" fill="white"/>
<rect x="101" y="65" width="5" height="5" transform="rotate(180 101 65)" fill="white"/>
<rect x="77" y="65" width="5" height="5" transform="rotate(180 77 65)" fill="white"/>
<rect x="113" y="89" width="5" height="5" transform="rotate(180 113 89)" fill="white"/>
<rect x="89" y="89" width="5" height="5" transform="rotate(180 89 89)" fill="white"/>
<rect x="101" y="89" width="5" height="5" transform="rotate(180 101 89)" fill="white"/>
<rect x="77" y="89" width="5" height="5" transform="rotate(180 77 89)" fill="white"/>
<rect x="113" y="113" width="5" height="5" transform="rotate(180 113 113)" fill="white"/>
<rect x="89" y="113" width="5" height="5" transform="rotate(180 89 113)" fill="white"/>
<rect x="101" y="113" width="5" height="5" transform="rotate(180 101 113)" fill="white"/>
<rect x="77" y="113" width="5" height="5" transform="rotate(180 77 113)" fill="white"/>
<rect x="65" y="17" width="5" height="5" transform="rotate(180 65 17)" fill="white"/>
<rect x="53" y="17" width="5" height="5" transform="rotate(180 53 17)" fill="white"/>
<rect x="65" y="41" width="5" height="5" transform="rotate(180 65 41)" fill="white"/>
<rect x="53" y="41" width="5" height="5" transform="rotate(180 53 41)" fill="white"/>
<rect x="65" y="65" width="5" height="5" transform="rotate(180 65 65)" fill="white"/>
<rect x="53" y="65" width="5" height="5" transform="rotate(180 53 65)" fill="white"/>
<rect x="65" y="89" width="5" height="5" transform="rotate(180 65 89)" fill="white"/>
<rect x="53" y="89" width="5" height="5" transform="rotate(180 53 89)" fill="white"/>
<rect x="65" y="113" width="5" height="5" transform="rotate(180 65 113)" fill="white"/>
<rect x="53" y="113" width="5" height="5" transform="rotate(180 53 113)" fill="white"/>
<rect x="41" y="5" width="5" height="5" transform="rotate(180 41 5)" fill="white"/>
<rect x="29" y="5" width="5" height="5" transform="rotate(180 29 5)" fill="white"/>
<rect x="41" y="29" width="5" height="5" transform="rotate(180 41 29)" fill="white"/>
<rect x="29" y="29" width="5" height="5" transform="rotate(180 29 29)" fill="white"/>
<rect x="41" y="53" width="5" height="5" transform="rotate(180 41 53)" fill="white"/>
<rect x="29" y="53" width="5" height="5" transform="rotate(180 29 53)" fill="white"/>
<rect x="41" y="77" width="5" height="5" transform="rotate(180 41 77)" fill="white"/>
<rect x="29" y="77" width="5" height="5" transform="rotate(180 29 77)" fill="white"/>
<rect x="41" y="101" width="5" height="5" transform="rotate(180 41 101)" fill="white"/>
<rect x="29" y="101" width="5" height="5" transform="rotate(180 29 101)" fill="white"/>
<rect x="41" y="17" width="5" height="5" transform="rotate(180 41 17)" fill="white"/>
<rect x="29" y="17" width="5" height="5" transform="rotate(180 29 17)" fill="white"/>
<rect x="41" y="41" width="5" height="5" transform="rotate(180 41 41)" fill="white"/>
<rect x="29" y="41" width="5" height="5" transform="rotate(180 29 41)" fill="white"/>
<rect x="41" y="65" width="5" height="5" transform="rotate(180 41 65)" fill="white"/>
<rect x="29" y="65" width="5" height="5" transform="rotate(180 29 65)" fill="white"/>
<rect x="41" y="89" width="5" height="5" transform="rotate(180 41 89)" fill="white"/>
<rect x="29" y="89" width="5" height="5" transform="rotate(180 29 89)" fill="white"/>
<rect x="41" y="113" width="5" height="5" transform="rotate(180 41 113)" fill="white"/>
<rect x="29" y="113" width="5" height="5" transform="rotate(180 29 113)" fill="white"/>
<rect x="17" y="5" width="5" height="5" transform="rotate(180 17 5)" fill="white"/>
<rect x="5" y="5" width="5" height="5" transform="rotate(180 5 5)" fill="white"/>
<rect x="17" y="29" width="5" height="5" transform="rotate(180 17 29)" fill="white"/>
<rect x="5" y="29" width="5" height="5" transform="rotate(180 5 29)" fill="white"/>
<rect x="17" y="53" width="5" height="5" transform="rotate(180 17 53)" fill="white"/>
<rect x="5" y="53" width="5" height="5" transform="rotate(180 5 53)" fill="white"/>
<rect x="17" y="77" width="5" height="5" transform="rotate(180 17 77)" fill="white"/>
<rect x="5" y="77" width="5" height="5" transform="rotate(180 5 77)" fill="white"/>
<rect x="17" y="101" width="5" height="5" transform="rotate(180 17 101)" fill="white"/>
<rect x="5" y="101" width="5" height="5" transform="rotate(180 5 101)" fill="white"/>
<rect x="17" y="17" width="5" height="5" transform="rotate(180 17 17)" fill="white"/>
<rect x="5" y="17" width="5" height="5" transform="rotate(180 5 17)" fill="white"/>
<rect x="17" y="41" width="5" height="5" transform="rotate(180 17 41)" fill="white"/>
<rect x="5" y="41" width="5" height="5" transform="rotate(180 5 41)" fill="white"/>
<rect x="17" y="65" width="5" height="5" transform="rotate(180 17 65)" fill="white"/>
<rect x="5" y="65" width="5" height="5" transform="rotate(180 5 65)" fill="white"/>
<rect x="17" y="89" width="5" height="5" transform="rotate(180 17 89)" fill="white"/>
<rect x="5" y="89" width="5" height="5" transform="rotate(180 5 89)" fill="white"/>
<rect x="17" y="113" width="5" height="5" transform="rotate(180 17 113)" fill="white"/>
<rect x="5" y="113" width="5" height="5" transform="rotate(180 5 113)" fill="white"/>
</g>
</svg>
