<svg width="24" height="24" viewBox="0 0 24 24" fill="none" xmlns="http://www.w3.org/2000/svg">
<path d="M8.02544 1.49995C6.97544 1.91245 5.43794 2.84995 4.57544 3.56245C0.937944 6.71245 -0.187055 12.525 1.98794 16.95C2.55044 18.1125 3.52544 19.5 4.16294 20.025C5.36294 21.075 5.51294 21.375 4.72544 21.375C4.01294 21.375 3.71294 21.8625 4.05044 22.3875C4.23794 22.6875 4.83794 22.725 6.15044 22.425L7.95044 22.05L7.72544 20.325C7.61294 19.3875 7.35044 18.45 7.16294 18.2625C6.63794 17.7375 5.92544 18.375 6.11294 19.2C6.30044 19.875 6.26294 19.875 5.51294 19.3875C5.06294 19.0875 4.20044 18.0375 3.56294 17.0625C2.70044 15.6375 2.43794 14.7375 2.32544 12.75C2.13794 9.82495 2.58794 8.17495 4.12544 6.03745C5.70044 3.86245 8.21294 2.54995 11.2129 2.28745C13.0504 2.09995 13.6879 1.91245 13.6879 1.49995C13.6879 0.599951 10.3129 0.637451 8.02544 1.49995Z" fill="#9398A2"/>
<path d="M17.55 1.38748C16.125 1.61248 15.825 2.17498 16.2 4.04998C16.4625 5.28748 16.725 5.62498 17.175 5.54998C17.55 5.47498 17.775 5.13748 17.7 4.76248C17.5125 3.74998 18.225 4.01248 19.35 5.32498C21 7.31248 21.75 9.33748 21.75 11.925C21.75 17.3625 18.225 21.2625 12.7875 21.7125C10.95 21.9 10.3125 22.0875 10.3125 22.5C10.3125 22.95 10.8 23.0625 12.6375 23.025C16.8 22.95 20.4375 20.5125 22.275 16.5375C23.475 13.875 23.3625 9.82498 22.0125 7.04998C21.45 5.88748 20.4 4.42498 19.6875 3.82498C18.5625 2.81248 18.525 2.66248 19.1625 2.51248C19.5375 2.39998 19.875 2.06248 19.875 1.72498C19.875 1.12498 19.575 1.08748 17.55 1.38748Z" fill="#9398A2"/>
<path d="M9.1875 9.9375C10.65 11.25 11.8875 12.3375 12 12.375C12.1125 12.375 13.3875 11.2875 14.8125 9.9375L17.4375 7.5375H12H6.5625L9.1875 9.9375Z" fill="#9398A2"/>
<path d="M5.625 12.525V16.5L12.1125 16.425L18.5625 16.3125L18.675 12.45C18.7125 10.35 18.6375 8.625 18.4875 8.625C18.3375 8.6625 16.8375 9.9 15.1875 11.4375C11.775 14.625 12.4125 14.6625 8.2875 10.9125L5.625 8.55V12.525Z" fill="#9398A2"/>
</svg>
