<svg width="20" height="20" viewBox="0 0 18 18" fill="none" xmlns="http://www.w3.org/2000/svg">
<path d="M13.6914 4.63672L9.48828 0.433594C9.37109 0.316406 9.21289 0.25 9.04688 0.25H0.75C0.404297 0.25 0.125 0.529297 0.125 0.875V17.125C0.125 17.4707 0.404297 17.75 0.75 17.75H13.25C13.5957 17.75 13.875 17.4707 13.875 17.125V5.08008C13.875 4.91406 13.8086 4.75391 13.6914 4.63672ZM12.4336 5.36719H8.75781V1.69141L12.4336 5.36719ZM12.4688 16.3438H1.53125V1.65625H7.42969V5.875C7.42969 6.09256 7.51611 6.30121 7.66995 6.45505C7.82379 6.60889 8.03244 6.69531 8.25 6.69531H12.4688V16.3438ZM7.04102 10.3301L5.83398 8.33008C5.79102 8.25977 5.71484 8.2168 5.63281 8.2168H4.88281C4.83789 8.2168 4.79492 8.22852 4.75781 8.25391C4.64844 8.32227 4.61523 8.4668 4.68555 8.57812L6.29297 11.125L4.66406 13.7188C4.64193 13.7543 4.62971 13.7952 4.62865 13.837C4.6276 13.8789 4.63775 13.9203 4.65806 13.957C4.67838 13.9936 4.70811 14.0242 4.74419 14.0455C4.78027 14.0668 4.82138 14.078 4.86328 14.0781H5.53711C5.61914 14.0781 5.69336 14.0352 5.73633 13.9668L6.96094 11.9844L8.17773 13.9648C8.2207 14.0352 8.29688 14.0762 8.37695 14.0762H9.10938C9.1543 14.0762 9.19727 14.0625 9.23633 14.0391C9.3457 13.9688 9.37695 13.8242 9.30664 13.7148L7.66602 11.168L9.33203 8.58008C9.35458 8.54461 9.36722 8.50374 9.36862 8.46174C9.37002 8.41973 9.36013 8.37811 9.33999 8.34122C9.31985 8.30433 9.29019 8.27351 9.2541 8.25197C9.218 8.23043 9.1768 8.21896 9.13477 8.21875H8.4375C8.35547 8.21875 8.2793 8.26172 8.23633 8.33203L7.04102 10.3301Z" fill="#0E8444"/>
</svg>
