<svg width="8" height="14" viewBox="0 0 8 14" fill="none" xmlns="http://www.w3.org/2000/svg">
<path d="M7.64471 13.6317C7.75733 13.5157 7.84669 13.3779 7.90765 13.2262C7.96862 13.0745 8 12.9119 8 12.7477C8 12.5835 7.96862 12.4209 7.90765 12.2692C7.84669 12.1175 7.75733 11.9798 7.64471 11.8638L2.93088 6.99891L7.64471 2.13404C7.87187 1.89961 7.99948 1.58164 7.99948 1.2501C7.99948 0.91855 7.87187 0.60058 7.64471 0.366142C7.41755 0.131704 7.10945 7.7854e-08 6.7882 1.05939e-07C6.46695 1.34024e-07 6.15885 0.131704 5.93169 0.366142L0.355289 6.12123C0.242663 6.23722 0.15331 6.37501 0.0923446 6.52669C0.0313791 6.67837 -6.25863e-07 6.84097 -6.11507e-07 7.00518C-5.97151e-07 7.16939 0.0313791 7.33199 0.0923447 7.48367C0.15331 7.63535 0.242663 7.77313 0.355289 7.88913L5.9317 13.6442C6.39336 14.1207 7.1709 14.1207 7.64471 13.6317Z" fill="white"/>
</svg>
