<!-- <svg width="18" height="14" viewBox="0 0 13 18" fill="none" xmlns="http://www.w3.org/2000/svg">
<path d="M4 2V17.5486H15.9605V5.94337L15.7924 5.75619L12.2043 2.16804L12.0171 2H4ZM5.19605 3.19605H11.1763V6.78419H14.7644V16.3526H5.19605V3.19605ZM12.3723 4.05601L13.9051 5.58814H12.3723V4.05601Z" fill="#233A84"/>
<path d="M9.60158 9H10.1047C10.1906 9 10.2656 9.05781 10.286 9.14219L11.0641 12.2563L11.7797 9.14531C11.8 9.06094 11.875 9 11.9625 9H12.5188C12.5475 9.00011 12.5758 9.00679 12.6015 9.01953C12.6273 9.03227 12.6498 9.05074 12.6673 9.07352C12.6848 9.09629 12.6968 9.12277 12.7025 9.15093C12.7082 9.17908 12.7073 9.20816 12.7 9.23594L11.5375 13.5484C11.5156 13.6312 11.4406 13.6875 11.3563 13.6875H10.8594C10.775 13.6875 10.7 13.6297 10.6781 13.5484L9.85315 10.4703L9.02815 13.5484C9.00627 13.6312 8.93127 13.6875 8.8469 13.6875H8.3469C8.26252 13.6875 8.18752 13.6297 8.16565 13.5484L7.00627 9.23594C6.99891 9.20816 6.99802 9.17905 7.00367 9.15088C7.00932 9.1227 7.02137 9.09619 7.03887 9.0734C7.05638 9.0506 7.07889 9.03213 7.10466 9.01941C7.13043 9.00668 7.15878 9.00004 7.18752 9H7.74065C7.82815 9 7.90315 9.06094 7.92346 9.14531L8.64377 12.25L9.42033 9.14219C9.44065 9.05781 9.51565 9 9.60158 9Z" fill="#233A84"/>
</svg> -->
<svg width="20" height="20" viewBox="0 0 18 18" fill="none" xmlns="http://www.w3.org/2000/svg">
<path d="M0 0V15.5486H11.9605V3.94337L11.7924 3.75619L8.20429 0.168045L8.01711 0H0ZM1.19605 1.19605H7.17629V4.78419H10.7644V14.3526H1.19605V1.19605ZM8.37234 2.05601L9.90507 3.58814H8.37234V2.05601Z" fill="#233A84"/>
</svg>