<svg width="37" height="48" viewBox="0 0 16 16" fill="none" xmlns="http://www.w3.org/2000/svg">
<path d="M11.9998 14.6659H3.99984C3.64622 14.6659 3.30708 14.5255 3.05703 14.2754C2.80698 14.0254 2.6665 13.6862 2.6665 13.3326V2.66595C2.6665 2.31233 2.80698 1.97319 3.05703 1.72314C3.30708 1.47309 3.64622 1.33262 3.99984 1.33262H8.6665C8.67248 1.33184 8.67853 1.33184 8.6845 1.33262H8.6885C8.6948 1.33459 8.70128 1.33593 8.70784 1.33662C8.7665 1.34062 8.8245 1.35195 8.8805 1.37062H8.9085C8.92081 1.37923 8.9324 1.38882 8.94317 1.39928C9.01579 1.43158 9.08197 1.47675 9.1385 1.53262L13.1385 5.53262C13.1944 5.58914 13.2396 5.65532 13.2718 5.72795C13.2776 5.74237 13.2828 5.75705 13.2872 5.77195L13.2938 5.79062C13.3125 5.84595 13.3232 5.90395 13.3265 5.96262C13.3271 5.96926 13.3287 5.97578 13.3312 5.98195V5.98595C13.3322 5.99033 13.3329 5.99479 13.3332 5.99928V13.3326C13.3332 13.6862 13.1927 14.0254 12.9426 14.2754C12.6926 14.5255 12.3535 14.6659 11.9998 14.6659ZM9.61584 9.33262V12.666H10.2425V11.306H11.2158V10.7473H10.2425V9.89328H11.3332V9.33262H9.61584ZM7.14917 9.33262V12.666H7.95317C8.2905 12.6826 8.61717 12.5453 8.84117 12.2926C9.0711 11.9992 9.18628 11.6321 9.16517 11.26V10.72C9.18068 10.3517 9.06226 9.99029 8.83184 9.70262C8.61517 9.45595 8.2985 9.31995 7.96984 9.33262H7.14917V9.33262ZM4.6665 9.33262V12.666H5.29317V11.4933H5.7105C5.98917 11.5086 6.26117 11.4053 6.45984 11.2093C6.64917 10.9973 6.74717 10.72 6.73317 10.436C6.74554 10.1454 6.6474 9.86102 6.4585 9.63995C6.36622 9.53762 6.25243 9.45699 6.12529 9.40385C5.99815 9.35071 5.86083 9.32639 5.72317 9.33262H4.6665ZM8.6665 2.66595V5.99928H11.9998L8.6665 2.66595ZM7.96384 12.1073H7.77584V9.89328H8.00384C8.08351 9.88859 8.1631 9.90395 8.23531 9.93795C8.30752 9.97196 8.37004 10.0235 8.41717 10.088C8.51517 10.29 8.55717 10.5146 8.5385 10.7386V11.318C8.55317 11.5313 8.50717 11.7446 8.40517 11.932C8.35135 11.9948 8.28304 12.0436 8.20616 12.0741C8.12927 12.1047 8.0461 12.116 7.96384 12.1073V12.1073ZM5.72317 10.9326H5.2925V9.89328H5.72917C5.7828 9.89386 5.8354 9.90805 5.88204 9.93452C5.92868 9.96099 5.96784 9.99888 5.99584 10.0446C6.06784 10.164 6.1025 10.3013 6.09584 10.4406C6.1042 10.5703 6.06977 10.6991 5.99784 10.8073C5.96515 10.8483 5.92323 10.8811 5.87551 10.9028C5.82778 10.9246 5.77559 10.9348 5.72317 10.9326Z" fill="#F43F4D"/>
</svg>
