<svg width="24" height="24" viewBox="0 0 24 24" fill="none" xmlns="http://www.w3.org/2000/svg">
<path d="M19.938 12.9997C19.7154 14.7621 18.9129 16.4004 17.6568 17.6565C16.4007 18.9126 14.7624 19.7151 13 19.9377V21.9997H11V19.9377C9.23761 19.7151 7.59934 18.9126 6.34324 17.6565C5.08713 16.4004 4.28459 14.7621 4.062 12.9997H2V10.9997H4.062C4.28459 9.2373 5.08713 7.59903 6.34324 6.34293C7.59934 5.08683 9.23761 4.28428 11 4.06169V1.99969H13V4.06169C14.7624 4.28428 16.4007 5.08683 17.6568 6.34293C18.9129 7.59903 19.7154 9.2373 19.938 10.9997H22V12.9997H19.938ZM12 17.9997C13.5913 17.9997 15.1174 17.3676 16.2426 16.2423C17.3679 15.1171 18 13.591 18 11.9997C18 10.4084 17.3679 8.88227 16.2426 7.75705C15.1174 6.63184 13.5913 5.99969 12 5.99969C10.4087 5.99969 8.88258 6.63184 7.75736 7.75705C6.63214 8.88227 6 10.4084 6 11.9997C6 13.591 6.63214 15.1171 7.75736 16.2423C8.88258 17.3676 10.4087 17.9997 12 17.9997V17.9997ZM12 14.9997C12.7956 14.9997 13.5587 14.6836 14.1213 14.121C14.6839 13.5584 15 12.7953 15 11.9997C15 11.204 14.6839 10.441 14.1213 9.87837C13.5587 9.31576 12.7956 8.99969 12 8.99969C11.2044 8.99969 10.4413 9.31576 9.87868 9.87837C9.31607 10.441 9 11.204 9 11.9997C9 12.7953 9.31607 13.5584 9.87868 14.121C10.4413 14.6836 11.2044 14.9997 12 14.9997V14.9997Z" fill="#192A3E"/>
</svg>
