<svg width="24" height="24" viewBox="0 0 24 24" fill="none" xmlns="http://www.w3.org/2000/svg">
<path d="M16.3382 5.18214C16.1058 5.02719 15.8734 5.02719 15.6409 5.10466L4.09684 9.67582H1.1527C0.687839 9.67582 0.37793 9.98573 0.37793 10.4506V13.5497C0.37793 14.0145 0.687839 14.3245 1.1527 14.3245H3.47702V19.7479C3.47702 20.2127 3.78693 20.5226 4.25179 20.5226H7.35088C7.81574 20.5226 8.12565 20.2127 8.12565 19.7479V15.9515L15.5635 18.9731C15.6409 18.9731 15.7184 19.0506 15.8734 19.0506C16.0283 19.0506 16.1833 18.9731 16.3382 18.8956C16.5707 18.7407 16.6481 18.5082 16.6481 18.2758V5.80196C16.6481 5.56953 16.4932 5.33709 16.3382 5.18214ZM1.92747 11.2254H3.47702V12.7749H1.92747V11.2254ZM6.57611 18.9731H5.02656V14.7118L6.57611 15.3317V18.9731ZM15.0986 17.0362L5.02656 13.0073V10.9929L15.0986 6.96412V17.0362Z" fill="#192A3E"/>
<path d="M20.3672 3.70838C20.0573 3.39847 19.5925 3.39847 19.2826 3.70838C18.9727 4.01829 18.9727 4.48316 19.2826 4.79306C21.0645 6.73 22.0717 9.28674 22.0717 11.9984C22.0717 14.7876 21.0645 17.3444 19.2051 19.2813C18.8952 19.5912 18.8952 20.0561 19.2051 20.366C19.36 20.5209 19.515 20.5984 19.7474 20.5984C19.9799 20.5984 20.1348 20.5209 20.2898 20.366C22.4591 18.1191 23.6213 15.175 23.6213 11.9984C23.6213 8.82188 22.4591 5.95522 20.3672 3.70838Z" fill="#192A3E"/>
<path d="M18.8166 5.956C18.5067 5.64609 18.0419 5.64609 17.7319 5.956C17.422 6.26591 17.422 6.73078 17.7319 7.04069C19.0491 8.3578 19.7464 10.1398 19.7464 11.9992C19.7464 13.8587 19.0491 15.6407 17.7319 16.9578C17.422 17.2677 17.422 17.7325 17.7319 18.0425C17.8869 18.1974 18.1193 18.2749 18.2743 18.2749C18.4292 18.2749 18.6617 18.1974 18.8166 18.0425C20.4436 16.4154 21.2959 14.3235 21.2959 11.9992C21.2959 9.75239 20.4436 7.58303 18.8166 5.956Z" fill="#192A3E"/>
</svg>
