<svg width="20" height="20" viewBox="0 0 20 20" fill="none" xmlns="http://www.w3.org/2000/svg">
<path d="M9.5 8.1665V11.6832C9.30333 11.5698 9.07667 11.4998 8.83333 11.4998C8.09667 11.4998 7.5 12.0965 7.5 12.8332C7.5 13.5698 8.09667 14.1665 8.83333 14.1665C9.57 14.1665 10.1667 13.5698 10.1667 12.8332V9.49984H11.5V8.1665H9.5ZM8.83333 13.4998C8.46667 13.4998 8.16667 13.1998 8.16667 12.8332C8.16667 12.4665 8.46667 12.1665 8.83333 12.1665C9.2 12.1665 9.5 12.4665 9.5 12.8332C9.5 13.1998 9.2 13.4998 8.83333 13.4998Z" fill="#E683FF"/>
<path d="M3.33331 0.833496V18.3335H16.6666V5.27177L16.4793 5.06109L12.4793 1.02263L12.2706 0.833496H3.33331ZM4.66665 2.17965H11.3333V6.21811H15.3333V16.9873H4.66665V2.17965ZM12.6666 3.14753L14.3753 4.87196H12.6666V3.14753Z" fill="#E683FF"/>
</svg>
