<svg width="20" height="20" viewBox="0 0 20 20" fill="none" xmlns="http://www.w3.org/2000/svg">
<path d="M16.0625 5.81272L11.6875 1.43772C11.6325 1.37665 11.5649 1.32826 11.4894 1.29589C11.4138 1.26351 11.3322 1.24793 11.25 1.25022H5C4.66878 1.25121 4.35142 1.38322 4.11721 1.61743C3.883 1.85164 3.75099 2.169 3.75 2.50022V17.5002C3.75099 17.8314 3.883 18.1488 4.11721 18.383C4.35142 18.6172 4.66878 18.7492 5 18.7502H15C15.3312 18.7492 15.6486 18.6172 15.8828 18.383C16.117 18.1488 16.249 17.8314 16.25 17.5002V6.25022C16.2523 6.16807 16.2367 6.0864 16.2043 6.01086C16.172 5.93532 16.1236 5.86772 16.0625 5.81272V5.81272ZM11.25 2.75022L14.75 6.25022H11.25V2.75022ZM15 17.5002H5V2.50022H10V6.25022C10.001 6.58144 10.133 6.8988 10.3672 7.13301C10.6014 7.36722 10.9188 7.49923 11.25 7.50022H15V17.5002Z" fill="#90A0B7"/>
<path d="M6 10H12V11H6V10Z" fill="#90A0B7"/>
<path d="M6 12H14V13H6V12Z" fill="#90A0B7"/>
</svg>
