<svg width="20" height="20" viewBox="0 0 20 20" fill="none" xmlns="http://www.w3.org/2000/svg">
<path d="M10.8027 9.94336L9.2832 11.8809L8.48047 10.8574C8.46585 10.8387 8.44718 10.8236 8.42586 10.8133C8.40454 10.8029 8.38114 10.7975 8.35742 10.7975C8.33371 10.7975 8.3103 10.8029 8.28898 10.8133C8.26767 10.8236 8.24899 10.8387 8.23438 10.8574L6.28516 13.3418C6.26712 13.3648 6.25593 13.3925 6.25287 13.4216C6.2498 13.4506 6.25498 13.48 6.26782 13.5063C6.28065 13.5326 6.30063 13.5547 6.32545 13.5702C6.35028 13.5856 6.37895 13.5938 6.4082 13.5938H13.5938C13.7246 13.5938 13.7969 13.4434 13.7168 13.3418L11.0508 9.94336C11.036 9.92466 11.0171 9.90954 10.9956 9.89916C10.9742 9.88877 10.9506 9.88337 10.9268 9.88337C10.9029 9.88337 10.8794 9.88877 10.8579 9.89916C10.8364 9.90954 10.8175 9.92466 10.8027 9.94336V9.94336ZM7.03125 8.63281C7.03125 8.84001 7.11356 9.03873 7.26007 9.18524C7.40659 9.33175 7.6053 9.41406 7.8125 9.41406C8.0197 9.41406 8.21841 9.33175 8.36493 9.18524C8.51144 9.03873 8.59375 8.84001 8.59375 8.63281C8.59375 8.42561 8.51144 8.2269 8.36493 8.08039C8.21841 7.93387 8.0197 7.85156 7.8125 7.85156C7.6053 7.85156 7.40659 7.93387 7.26007 8.08039C7.11356 8.2269 7.03125 8.42561 7.03125 8.63281ZM16.6914 5.63672L12.4883 1.43359C12.3711 1.31641 12.2129 1.25 12.0469 1.25H3.75C3.4043 1.25 3.125 1.5293 3.125 1.875V18.125C3.125 18.4707 3.4043 18.75 3.75 18.75H16.25C16.5957 18.75 16.875 18.4707 16.875 18.125V6.08008C16.875 5.91406 16.8086 5.75391 16.6914 5.63672ZM15.4336 6.36719H11.7578V2.69141L15.4336 6.36719ZM15.4688 17.3438H4.53125V2.65625H10.4297V6.875C10.4297 7.09256 10.5161 7.30121 10.67 7.45505C10.8238 7.60889 11.0324 7.69531 11.25 7.69531H15.4688V17.3438Z" fill="#4C70E3"/>
</svg>
