<svg width="24" height="24" viewBox="0 0 24 24" fill="none" xmlns="http://www.w3.org/2000/svg">
<path fill-rule="evenodd" clip-rule="evenodd" d="M6.609 2.013C8.10822 0.720203 10.0204 0.00620777 12 0C16.035 0 19.3845 3 19.749 6.8685C22.137 7.206 24 9.2055 24 11.6595C24 14.3535 21.753 16.5 19.0305 16.5H15C14.8011 16.5 14.6103 16.421 14.4697 16.2803C14.329 16.1397 14.25 15.9489 14.25 15.75C14.25 15.5511 14.329 15.3603 14.4697 15.2197C14.6103 15.079 14.8011 15 15 15H19.032C20.9685 15 22.5 13.482 22.5 11.6595C22.5 9.8355 20.97 8.3175 19.0305 8.3175H18.2805V7.5675C18.282 4.2375 15.492 1.5 12 1.5C10.3798 1.50647 8.81526 2.09165 7.5885 3.15C6.453 4.128 5.859 5.307 5.859 6.2325V6.9045L5.1915 6.978C3.096 7.2075 1.5 8.928 1.5 10.977C1.5 13.1775 3.345 15 5.6715 15H9C9.19891 15 9.38968 15.079 9.53033 15.2197C9.67098 15.3603 9.75 15.5511 9.75 15.75C9.75 15.9489 9.67098 16.1397 9.53033 16.2803C9.38968 16.421 9.19891 16.5 9 16.5H5.6715C2.562 16.5 0 14.049 0 10.977C0 8.3325 1.899 6.1425 4.413 5.5875C4.6275 4.293 5.46 3.003 6.609 2.013V2.013Z" fill="#192A3E"/>
<path fill-rule="evenodd" clip-rule="evenodd" d="M11.4695 6.21943C11.5391 6.14958 11.6219 6.09417 11.713 6.05636C11.8041 6.01855 11.9018 5.99908 12.0005 5.99908C12.0991 5.99908 12.1968 6.01855 12.2879 6.05636C12.379 6.09417 12.4618 6.14958 12.5315 6.21943L17.0315 10.7194C17.1723 10.8603 17.2514 11.0513 17.2514 11.2504C17.2514 11.4496 17.1723 11.6406 17.0315 11.7814C16.8906 11.9223 16.6996 12.0014 16.5005 12.0014C16.3013 12.0014 16.1103 11.9223 15.9695 11.7814L12.7505 8.56092V21.7504C12.7505 21.9493 12.6714 22.1401 12.5308 22.2808C12.3901 22.4214 12.1994 22.5004 12.0005 22.5004C11.8015 22.5004 11.6108 22.4214 11.4701 22.2808C11.3295 22.1401 11.2505 21.9493 11.2505 21.7504V8.56092L8.03146 11.7814C7.89063 11.9223 7.69962 12.0014 7.50046 12.0014C7.3013 12.0014 7.11029 11.9223 6.96946 11.7814C6.82863 11.6406 6.74951 11.4496 6.74951 11.2504C6.74951 11.0513 6.82863 10.8603 6.96946 10.7194L11.4695 6.21943Z" fill="#192A3E"/>
</svg>
