<svg width="35" height="35" viewBox="0 0 16 16" fill="none" xmlns="http://www.w3.org/2000/svg">
<path d="M9.48469 1H4.77833C4.30669 1 3.85436 1.17555 3.52086 1.48803C3.18736 1.80052 3 2.22433 3 2.66625V12.6637C3 13.1057 3.18736 13.5295 3.52086 13.842C3.85436 14.1544 4.30669 14.33 4.77833 14.33H11.8917C12.3633 14.33 12.8156 14.1544 13.1491 13.842C13.4826 13.5295 13.67 13.1057 13.67 12.6637V4.92152C13.6699 4.70058 13.5762 4.4887 13.4095 4.3325L10.1133 1.24411C9.94662 1.08785 9.72049 1.00005 9.48469 1V1ZM9.66875 3.91594V2.24969L12.3362 4.74906H10.5579C10.3221 4.74906 10.0959 4.66129 9.92918 4.50505C9.76243 4.3488 9.66875 4.1369 9.66875 3.91594ZM6.45352 6.56527L8.335 8.68058L10.2165 6.56444C10.2921 6.47959 10.4005 6.42635 10.518 6.41643C10.6355 6.40651 10.7523 6.44072 10.8429 6.51154C10.9335 6.58236 10.9903 6.68398 11.0009 6.79405C11.0114 6.90412 10.9749 7.01363 10.8994 7.09848L8.91385 9.33125L10.8994 11.564C10.9715 11.6492 11.0052 11.7575 10.9933 11.8656C10.9814 11.9738 10.9249 12.0733 10.8357 12.143C10.7465 12.2126 10.6319 12.2468 10.5162 12.2382C10.4004 12.2297 10.2929 12.1791 10.2165 12.0972L8.335 9.98192L6.45352 12.0981C6.37794 12.1829 6.26948 12.2361 6.15201 12.2461C6.03453 12.256 5.91766 12.2218 5.82711 12.151C5.73655 12.0801 5.67973 11.9785 5.66914 11.8685C5.65855 11.7584 5.69506 11.6489 5.77064 11.564L7.75615 9.33125L5.77064 7.09848C5.73161 7.05667 5.70189 7.00797 5.68324 6.95525C5.66459 6.90252 5.65739 6.84684 5.66204 6.79146C5.6667 6.73609 5.68313 6.68215 5.71037 6.63281C5.7376 6.58348 5.7751 6.53974 5.82064 6.50418C5.86618 6.46862 5.91885 6.44196 5.97555 6.42575C6.03226 6.40955 6.09184 6.40413 6.15081 6.40983C6.20978 6.41552 6.26694 6.4322 6.31893 6.4589C6.37091 6.48559 6.41668 6.52176 6.45352 6.56527V6.56527Z" fill="#20744A"/>
</svg>
