<svg width="14" height="14" viewBox="0 0 14 14" fill="none" xmlns="http://www.w3.org/2000/svg">
<path d="M13.1718 3.23557L10.889 0.941127C10.7382 0.791041 10.534 0.706787 10.3213 0.706787C10.1085 0.706787 9.90433 0.791041 9.75348 0.941127L1.6607 9.02224L0.921811 12.2111C0.896322 12.3277 0.897195 12.4485 0.924368 12.5647C0.951541 12.6809 1.00433 12.7895 1.07887 12.8827C1.15341 12.9759 1.24783 13.0512 1.35522 13.1032C1.46261 13.1553 1.58027 13.1826 1.69959 13.1833C1.75519 13.189 1.81121 13.189 1.86681 13.1833L5.0907 12.4445L13.1718 4.37113C13.3219 4.22028 13.4061 4.01614 13.4061 3.80335C13.4061 3.59056 13.3219 3.38642 13.1718 3.23557V3.23557ZM4.70181 11.7445L1.68014 12.3783L2.36848 9.41502L8.42348 3.38335L10.7568 5.71668L4.70181 11.7445ZM11.2779 5.15279L8.94459 2.81946L10.2979 1.4739L12.5924 3.80724L11.2779 5.15279Z" fill="#192A3E"/>
</svg>
