<svg width="14" height="14" viewBox="0 0 14 14" fill="none" xmlns="http://www.w3.org/2000/svg">
<path d="M7.00036 0.779358C7.54832 0.779338 8.07498 0.991591 8.46979 1.37157C8.86461 1.75154 9.09688 2.26969 9.11784 2.81724L9.11932 2.89832H11.791C11.9089 2.8987 12.0221 2.94421 12.1074 3.0255C12.1927 3.10679 12.2436 3.21767 12.2496 3.33534C12.2556 3.45301 12.2164 3.56852 12.1398 3.65811C12.0633 3.74771 11.9554 3.80458 11.8382 3.81702L11.791 3.8196H11.389L10.7614 12.137C10.7317 12.5308 10.5542 12.8989 10.2646 13.1675C9.97501 13.436 9.59462 13.5852 9.19965 13.5852H4.80106C4.40609 13.5852 4.0257 13.436 3.73609 13.1675C3.44648 12.8989 3.26904 12.5308 3.2393 12.137L2.61135 3.8196H2.20967C2.09563 3.81966 1.98562 3.7774 1.90094 3.70103C1.81625 3.62465 1.76291 3.51957 1.75123 3.40613L1.74902 3.35896C1.74902 3.12053 1.93033 2.92411 2.1625 2.9009L2.20967 2.89832H4.8814C4.8814 2.33633 5.10464 1.79737 5.50203 1.39999C5.89941 1.0026 6.43837 0.779358 7.00036 0.779358V0.779358ZM10.4651 3.8196H3.53558L4.15837 12.0677C4.17063 12.2298 4.24365 12.3813 4.36282 12.4918C4.48199 12.6024 4.63851 12.6639 4.80106 12.664H9.19965C9.36227 12.664 9.51888 12.6025 9.63813 12.492C9.75737 12.3814 9.83044 12.2299 9.84271 12.0677L10.4655 3.8196H10.4651ZM8.19803 5.75431C8.43646 5.75431 8.63288 5.93561 8.65646 6.16778L8.65867 6.21495V10.2686C8.65922 10.3871 8.61412 10.5012 8.53274 10.5872C8.45135 10.6733 8.33994 10.7247 8.22164 10.7308C8.10335 10.7369 7.98726 10.6971 7.89749 10.6198C7.80772 10.5426 7.75118 10.4337 7.7396 10.3158L7.73739 10.2686V6.21495C7.73739 5.96067 7.94375 5.75431 8.19803 5.75431ZM5.80268 5.75431C6.04111 5.75431 6.23753 5.93561 6.26112 6.16778L6.26333 6.21495V10.2686C6.26388 10.3871 6.21878 10.5012 6.13739 10.5872C6.05601 10.6733 5.9446 10.7247 5.8263 10.7308C5.708 10.7369 5.59191 10.6971 5.50215 10.6198C5.41238 10.5426 5.35583 10.4337 5.34425 10.3158L5.34204 10.2686V6.21495C5.34204 5.96067 5.54841 5.75431 5.80268 5.75431ZM7.00036 1.70064C6.69444 1.70062 6.40011 1.81767 6.17775 2.02776C5.95538 2.23786 5.82185 2.52508 5.80453 2.83051L5.80268 2.89832H8.19803C8.19803 2.58067 8.07185 2.27604 7.84724 2.05143C7.62263 1.82683 7.318 1.70064 7.00036 1.70064V1.70064Z" fill="#192A3E"/>
</svg>
