<svg width="20" height="20" viewBox="0 0 20 20"  fill="none" xmlns="http://www.w3.org/2000/svg">
<path d="M15.8337 5.00016H9.16699L7.50033 3.3335H3.33366C2.41699 3.3335 1.66699 4.0835 1.66699 5.00016V15.0002C1.66699 15.9168 2.41699 16.6668 3.33366 16.6668H16.2503C16.9587 16.6668 17.5003 16.1252 17.5003 15.4168V6.66683C17.5003 5.75016 16.7503 5.00016 15.8337 5.00016Z" fill="#FFA000"/>
<path d="M17.583 7.5H6.37467C5.58301 7.5 4.87467 8.08333 4.74967 8.875L3.33301 16.6667H16.5413C17.333 16.6667 18.0413 16.0833 18.1663 15.2917L19.208 9.45833C19.4163 8.45833 18.6247 7.5 17.583 7.5Z" fill="#FFCA28"/>
</svg>

