<svg width="35" height="35" viewBox="0 0 16 16" fill="none" xmlns="http://www.w3.org/2000/svg">
<path d="M13.67 12.83C13.67 13.6584 12.9984 14.33 12.17 14.33H4.5C3.67157 14.33 3 13.6584 3 12.83V2.5C3 1.67157 3.67157 1 4.5 1H9.73587C10.1209 1 10.4912 1.14805 10.77 1.4135L13.2042 3.73042C13.5016 4.01355 13.67 4.40625 13.67 4.81692V12.83Z" fill="#809BF1"/>
<path d="M12.5732 4.57322C12.7307 4.73071 12.6192 5 12.3964 5H10.25C10.1119 5 10 4.88807 10 4.75V2.60355C10 2.38083 10.2693 2.26929 10.4268 2.42678L12.5732 4.57322Z" fill="white"/>
<path d="M7.33317 8.33398L5.6665 10.6673H8.99984L7.33317 8.33398Z" fill="white"/>
<path d="M8.99984 9L7.6665 10.6667H10.3332L8.99984 9Z" fill="white"/>
<path d="M9.70931 8.08464C9.89341 8.08464 10.0426 7.9354 10.0426 7.7513C10.0426 7.56721 9.89341 7.41797 9.70931 7.41797C9.52522 7.41797 9.37598 7.56721 9.37598 7.7513C9.37598 7.9354 9.52522 8.08464 9.70931 8.08464Z" fill="white"/>
<rect x="5.61084" y="6.48438" width="5.06818" height="3.90454" stroke="white" stroke-width="0.75"/>
</svg>
