<svg width="14" height="17" viewBox="0 0 14 17" fill="none" xmlns="http://www.w3.org/2000/svg">
<path d="M7.63594 8.44988L6.29186 10.1637L5.58182 9.2584C5.56889 9.24188 5.55237 9.22852 5.53351 9.21934C5.51466 9.21015 5.49396 9.20537 5.47298 9.20537C5.452 9.20537 5.4313 9.21015 5.41244 9.21934C5.39359 9.22852 5.37707 9.24188 5.36414 9.2584L3.63999 11.4559C3.62404 11.4763 3.61414 11.5007 3.61143 11.5265C3.60872 11.5522 3.6133 11.5782 3.62465 11.6014C3.63601 11.6247 3.65367 11.6442 3.67563 11.6579C3.69759 11.6716 3.72296 11.6788 3.74883 11.6788H10.1047C10.2204 11.6788 10.2844 11.5458 10.2135 11.4559L7.85535 8.44988C7.84224 8.43334 7.82557 8.41997 7.80657 8.41078C7.78758 8.4016 7.76675 8.39682 7.74564 8.39682C7.72454 8.39682 7.70371 8.4016 7.68471 8.41078C7.66571 8.41997 7.64904 8.43334 7.63594 8.44988ZM4.29994 7.29066C4.29994 7.47394 4.37274 7.64971 4.50234 7.7793C4.63193 7.9089 4.8077 7.9817 4.99098 7.9817C5.17425 7.9817 5.35002 7.9089 5.47962 7.7793C5.60921 7.64971 5.68202 7.47394 5.68202 7.29066C5.68202 7.10739 5.60921 6.93162 5.47962 6.80202C5.35002 6.67242 5.17425 6.59962 4.99098 6.59962C4.8077 6.59962 4.63193 6.67242 4.50234 6.80202C4.37274 6.93162 4.29994 7.10739 4.29994 7.29066ZM12.8447 4.64052L9.12686 0.92271C9.02321 0.819054 8.88327 0.760315 8.73642 0.760315H1.39756C1.09177 0.760315 0.844727 1.00736 0.844727 1.31315V15.6868C0.844727 15.9926 1.09177 16.2397 1.39756 16.2397H12.4542C12.76 16.2397 13.0071 15.9926 13.0071 15.6868V5.03268C13.0071 4.88583 12.9483 4.74417 12.8447 4.64052ZM11.7321 5.28664H8.48074V2.03529L11.7321 5.28664ZM11.7632 14.9958H2.0886V2.00419H7.30597V5.73582C7.30597 5.92826 7.38241 6.11281 7.51849 6.24889C7.65456 6.38496 7.83912 6.46141 8.03156 6.46141H11.7632V14.9958Z" fill="#4C70E3"/>
</svg>
