<svg width="35" height="35" viewBox="0 0 24 24" fill="none" xmlns="http://www.w3.org/2000/svg">
<path d="M14.227 1.5H7.16749C6.46003 1.5 5.78154 1.76332 5.28129 2.23204C4.78104 2.70078 4.5 3.33649 4.5 3.99937V18.9955C4.5 19.6585 4.78104 20.2942 5.28129 20.763C5.78154 21.2316 6.46003 21.495 7.16749 21.495H17.8376C18.545 21.495 19.2234 21.2316 19.7237 20.763C20.2239 20.2942 20.505 19.6585 20.505 18.9955V7.38228C20.5049 7.05087 20.3643 6.73305 20.1143 6.49875L15.17 1.86616C14.9199 1.63177 14.5807 1.50007 14.227 1.5ZM14.5031 5.87391V3.37453L18.5043 7.12359H15.8369C15.4832 7.12359 15.1439 6.99193 14.8938 6.75757C14.6436 6.5232 14.5031 6.20535 14.5031 5.87391ZM9.14813 10.0966L10.5299 15.2752L11.8596 10.7077C11.8985 10.5759 11.9823 10.4596 12.0985 10.3767C12.2146 10.2939 12.3565 10.249 12.5025 10.249C12.6485 10.249 12.7904 10.2939 12.9065 10.3767C13.0227 10.4596 13.1066 10.5759 13.1454 10.7077L14.4751 15.2752L15.857 10.0966C15.903 9.93919 16.013 9.80493 16.1633 9.72252C16.3137 9.64009 16.4925 9.61608 16.6614 9.65559C16.8305 9.6951 16.9763 9.795 17.0676 9.93393C17.1591 10.0729 17.1888 10.2398 17.1506 10.399L15.15 17.8971C15.114 18.031 15.0317 18.1498 14.9159 18.2352C14.8002 18.3207 14.6576 18.3676 14.5103 18.3691C14.363 18.3705 14.2193 18.3262 14.1017 18.2431C13.9841 18.16 13.8992 18.0427 13.8603 17.9097L12.5025 13.2496L11.1447 17.9109C11.1058 18.0439 11.0209 18.1612 10.9033 18.2443C10.7857 18.3274 10.642 18.3718 10.4947 18.3703C10.3474 18.369 10.2048 18.3219 10.0891 18.2365C9.97334 18.151 9.89103 18.0322 9.855 17.8984L7.85438 10.4003C7.83087 10.32 7.82473 10.2361 7.83634 10.1535C7.84794 10.0709 7.87703 9.99138 7.92191 9.91951C7.96679 9.84763 8.02653 9.78489 8.09766 9.73495C8.16879 9.68502 8.24985 9.64893 8.33609 9.62877C8.42232 9.60861 8.51198 9.6048 8.5998 9.61758C8.68763 9.63034 8.77184 9.65944 8.8475 9.70314C8.92314 9.74685 8.98871 9.80427 9.04034 9.87205C9.09197 9.93984 9.12861 10.0166 9.14813 10.0978V10.0966Z" fill="#838FA0"/>
<rect x="6" y="9" width="12" height="10.5" fill="#838FA0"/>
<rect x="7" y="12" width="11" height="1" fill="#C9D4E4"/>
<rect x="7" y="14" width="11" height="1" fill="#C9D4E4"/>
<rect x="7" y="16" width="11" height="1" fill="#C9D4E4"/>
</svg>
