<svg width="20" height="20" viewBox="0 0 18 18" fill="none" xmlns="http://www.w3.org/2000/svg">
<path d="M12.5527 5.46744H12.2137V3.83194C12.2135 3.82155 12.2125 3.8112 12.2107 3.80094C12.2113 3.73517 12.188 3.67141 12.1453 3.62145L9.42375 0.513445L9.42175 0.511445C9.38719 0.473941 9.34314 0.446473 9.29425 0.431945L9.27925 0.426945C9.25848 0.421766 9.23716 0.41908 9.21575 0.418945H2.52725C2.22175 0.418945 1.97375 0.667445 1.97375 0.972445V5.46744H1.63475C1.19775 5.46744 0.84375 5.82145 0.84375 6.25845V10.3724C0.84375 10.8089 1.19825 11.1634 1.63475 11.1634H1.97375V13.9799C1.97375 14.2849 2.22175 14.5334 2.52725 14.5334H11.6602C11.9653 14.5334 12.2137 14.2849 12.2137 13.9799V11.1634H12.5527C12.9897 11.1634 13.3438 10.8089 13.3438 10.3724V6.25845C13.3438 5.82145 12.9892 5.46744 12.5527 5.46744ZM2.52725 0.972445H8.93875V3.80444C8.93875 3.95744 9.06275 4.08095 9.21575 4.08095H11.6608V5.46744H2.52725V0.972445ZM9.32225 8.33744C9.32225 9.12844 9.03425 9.67444 8.63475 10.0114C8.19975 10.3729 7.53775 10.5449 6.72825 10.5449C6.24375 10.5449 5.90075 10.5139 5.66725 10.4839V6.42444C6.01075 6.36944 6.45825 6.33894 6.93075 6.33894C7.71525 6.33894 8.22425 6.47994 8.62275 6.78044C9.05225 7.09894 9.32225 7.60794 9.32225 8.33744ZM2.10425 10.5024V6.42444C2.39225 6.37544 2.79725 6.33894 3.36725 6.33894C3.94375 6.33894 4.35475 6.44945 4.63025 6.66995C4.89375 6.87845 5.07125 7.22195 5.07125 7.62645C5.07125 8.03145 4.93675 8.37445 4.69125 8.60744C4.37225 8.90795 3.90025 9.04294 3.34825 9.04294C3.22575 9.04294 3.11525 9.03695 3.02975 9.02444V10.5024H2.10425ZM11.6602 13.8299H2.52725V11.1634H11.6602V13.8299ZM12.4622 7.13594H10.8737V8.08044H12.3577V8.84094H10.8737V10.5024H9.93625V6.36945H12.4622V7.13594Z" fill="#F07373"/>
</svg>
