<svg width="20" height="20" viewBox="0 0 20 20" fill="none" xmlns="http://www.w3.org/2000/svg">
<path d="M8.28125 9.29688C8.19531 9.29688 8.125 9.36719 8.125 9.45312V14.8438C8.125 14.9297 8.19531 15 8.28125 15H8.91602C9.00195 15 9.07227 14.9297 9.07227 14.8438V12.9785H10.3086C11.4687 12.9785 12.1875 12.2188 12.1875 11.1406C12.1875 10.0762 11.4785 9.29883 10.3125 9.29883H8.28125V9.29688ZM11.2227 11.1387C11.2227 11.9863 10.7051 12.1992 9.83203 12.1992H9.07227V10.082H10.1699C10.8301 10.082 11.2227 10.4668 11.2227 11.1387V11.1387ZM16.6914 5.63672L12.4883 1.43359C12.3711 1.31641 12.2129 1.25 12.0469 1.25H3.75C3.4043 1.25 3.125 1.5293 3.125 1.875V18.125C3.125 18.4707 3.4043 18.75 3.75 18.75H16.25C16.5957 18.75 16.875 18.4707 16.875 18.125V6.08008C16.875 5.91406 16.8086 5.75391 16.6914 5.63672V5.63672ZM15.4336 6.36719H11.7578V2.69141L15.4336 6.36719ZM15.4688 17.3438H4.53125V2.65625H10.4297V6.875C10.4297 7.09256 10.5161 7.30121 10.67 7.45505C10.8238 7.60889 11.0324 7.69531 11.25 7.69531H15.4688V17.3438Z" fill="#2ED47A"/>
</svg>
