<svg width="20" height="20" viewBox="0 0 18 18" fill="none" xmlns="http://www.w3.org/2000/svg">
<path d="M5.42924 7.37493C5.35284 7.37493 5.29033 7.43744 5.29033 7.51384V12.3062C5.29033 12.3826 5.35284 12.4451 5.42924 12.4451H5.99357C6.06997 12.4451 6.13247 12.3826 6.13247 12.3062V10.648H7.2316C8.26301 10.648 8.90199 9.97255 8.90199 9.01407C8.90199 8.06775 8.27169 7.37667 7.23507 7.37667H5.42924V7.37493ZM8.04422 9.01233C8.04422 9.76592 7.58408 9.95518 6.80792 9.95518H6.13247V8.07296H7.10832C7.69521 8.07296 8.04422 8.41502 8.04422 9.01233ZM12.9061 4.12097L9.16939 0.384289C9.06521 0.280106 8.92456 0.221069 8.77697 0.221069H1.40085C1.09352 0.221069 0.845215 0.469371 0.845215 0.776709V15.2233C0.845215 15.5307 1.09352 15.779 1.40085 15.779H12.5137C12.821 15.779 13.0693 15.5307 13.0693 15.2233V4.51512C13.0693 4.36753 13.0103 4.22515 12.9061 4.12097ZM11.7878 4.77037H8.51999V1.50251L11.7878 4.77037ZM11.8191 14.5288H2.0954V1.47126H7.33925V5.22183C7.33925 5.41524 7.41609 5.60074 7.55286 5.7375C7.68962 5.87427 7.87512 5.95111 8.06853 5.95111H11.8191V14.5288Z" fill="#2ED47A"/>
</svg>
