<svg width="35" height="35" viewBox="0 0 16 16" fill="none" xmlns="http://www.w3.org/2000/svg">
<path d="M8.50164 9.33464H7.44531V6.41797H8.50164C8.70598 6.41797 8.90833 6.45569 9.09711 6.52898C9.2859 6.60227 9.45744 6.70969 9.60193 6.8451C9.74642 6.98052 9.86104 7.14129 9.93924 7.31822C10.0174 7.49516 10.0577 7.68479 10.0577 7.8763C10.0577 8.06781 10.0174 8.25745 9.93924 8.43438C9.86104 8.61132 9.74642 8.77208 9.60193 8.9075C9.45744 9.04292 9.2859 9.15034 9.09711 9.22363C8.90833 9.29691 8.70598 9.33464 8.50164 9.33464Z" fill="#DC6F4C"/>
<path d="M4.77833 1H9.48469C9.72049 1.00005 9.94662 1.08788 10.1133 1.24417L13.4095 4.33333C13.5762 4.48958 13.6699 4.7015 13.67 4.9225V12.6667C13.67 13.1087 13.4826 13.5326 13.1491 13.8452C12.8156 14.1577 12.3633 14.3333 11.8917 14.3333H4.77833C4.30669 14.3333 3.85436 14.1577 3.52086 13.8452C3.18736 13.5326 3 13.1087 3 12.6667V2.66667C3 2.22464 3.18736 1.80072 3.52086 1.48816C3.85436 1.17559 4.30669 1 4.77833 1V1ZM9.66875 2.25V3.91667C9.66875 4.13768 9.76243 4.34964 9.92918 4.50592C10.0959 4.6622 10.3221 4.75 10.5579 4.75H12.3362L9.66875 2.25ZM7.44583 5.58333C7.21001 5.58333 6.98385 5.67113 6.8171 5.82741C6.65035 5.98369 6.55667 6.19565 6.55667 6.41667V11.8333C6.55667 11.9438 6.60351 12.0498 6.68688 12.128C6.77026 12.2061 6.88334 12.25 7.00125 12.25C7.11916 12.25 7.23224 12.2061 7.31562 12.128C7.39899 12.0498 7.44583 11.9438 7.44583 11.8333V10.1667H8.50216C9.15067 10.1667 9.77262 9.92522 10.2312 9.49545C10.6898 9.06568 10.9474 8.48279 10.9474 7.875C10.9474 7.26721 10.6898 6.68432 10.2312 6.25455C9.77262 5.82478 9.15067 5.58333 8.50216 5.58333H7.44583Z" fill="#DC6F4C"/>
</svg>
