<svg width="24" height="24" viewBox="0 0 24 24" fill="none" xmlns="http://www.w3.org/2000/svg">
<path d="M16.0002 15.0003C20.0092 14.9353 23.0002 11.9673 23.0002 8.00031C23.0002 4.98831 22.0032 5.98531 21.0002 7.00031C20.0092 7.98031 18.0002 10.0003 18.0002 10.0003L14.0002 6.00031C14.0002 6.00031 16.0202 3.99131 17.0002 3.00031C18.0152 1.99731 18.0152 1.00031 16.0002 1.00031C12.0332 1.00031 9.0532 3.99131 9.0002 8.00031C9.0422 8.97631 9.0002 11.0003 9.0002 11.0003C7.1152 12.8973 4.6602 15.3533 3.0002 17.0003C0.0681978 19.9443 4.0562 23.9323 7.0002 21.0003C8.6502 19.3383 11.1132 16.8753 13.0002 15.0003C13.0002 15.0003 15.0242 14.9583 16.0002 15.0003Z" stroke="#192A3E" stroke-width="2"/>
</svg>
