<svg width="35" height="35" viewBox="0 0 16 16" fill="none" xmlns="http://www.w3.org/2000/svg">
<path d="M3.48413 2.16059C3.64502 2.05357 3.83026 1.99795 4.01874 2.00006H12.0186C12.2397 2.00497 12.453 2.0896 12.6252 2.24072C12.7974 2.39184 12.9188 2.60092 12.9704 2.83524C12.9943 2.9564 13.0038 3.08043 12.9986 3.20424V7.98844H12.3808C12.3518 7.98966 12.3229 7.99281 12.2943 7.99786C12.2184 7.99169 12.1422 7.99011 12.0661 7.99315C11.9483 7.99615 11.8265 7.98716 11.7071 7.99914C11.6551 7.99126 11.6025 7.9884 11.55 7.99058H9.68848C9.60991 7.99058 9.5345 7.99401 9.4579 7.9863L9.49718 7.95848L7.00169 6.32621V7.99101C6.13242 7.98887 5.26275 7.99101 4.39347 7.99101C4.36048 7.99202 4.32757 7.99502 4.29488 8C4.2116 7.9863 4.12715 7.99315 4.0427 7.99315C3.93114 7.99572 3.8188 7.98673 3.70764 7.99957C3.67472 7.9942 3.64153 7.99105 3.60826 7.99015H3.00294C3.0053 6.43409 3.00294 4.87803 3.00294 3.3241C2.99461 3.16208 3.00398 2.99956 3.03083 2.83995C3.0613 2.69962 3.11706 2.56729 3.19488 2.45066C3.2727 2.33403 3.37102 2.23543 3.48413 2.16059V2.16059ZM3.69624 3.09722C3.64247 3.11136 3.59449 3.14445 3.55976 3.19136C3.52502 3.23827 3.50548 3.29637 3.50416 3.35664V3.91999C3.50801 3.98873 3.53551 4.05335 3.58116 4.10096C3.62682 4.14858 3.68727 4.17567 3.75045 4.17683H4.26463C4.32649 4.17288 4.38481 4.14409 4.42834 4.09603C4.47187 4.04796 4.49751 3.98402 4.50031 3.91656C4.50228 3.7342 4.50031 3.55141 4.50031 3.36905C4.50126 3.31911 4.48973 3.26983 4.46697 3.22648C4.44421 3.18313 4.41106 3.14733 4.37108 3.12291C4.32771 3.09852 4.27921 3.08701 4.23046 3.08952H3.78423C3.75474 3.08875 3.72525 3.09133 3.69624 3.09722V3.09722ZM11.6863 3.09722C11.6335 3.11258 11.5868 3.14625 11.5532 3.19314C11.5196 3.24003 11.501 3.29758 11.5001 3.35707V3.91614C11.5029 3.9836 11.5285 4.04753 11.5721 4.0956C11.6156 4.14367 11.6739 4.17245 11.7358 4.17641C11.907 4.17855 12.0783 4.17641 12.2496 4.17641C12.3131 4.1752 12.3739 4.14775 12.4196 4.0996C12.4653 4.05145 12.4926 3.98618 12.4958 3.91699C12.4982 3.72949 12.4958 3.54199 12.4958 3.3545C12.4943 3.28647 12.4696 3.22152 12.4264 3.17235C12.3833 3.12318 12.3248 3.09333 12.2625 3.08866C12.1258 3.08481 11.9876 3.08866 11.852 3.08866C11.7966 3.08563 11.741 3.08907 11.6863 3.09893V3.09722ZM3.69703 4.7312C3.65675 4.74151 3.61945 4.76256 3.58847 4.79244C3.55748 4.82232 3.53378 4.86011 3.51948 4.90243C3.50498 4.95599 3.49953 5.01198 3.50338 5.06767V5.55353C3.50685 5.62042 3.5328 5.68358 3.57626 5.73095C3.61973 5.77832 3.67768 5.8066 3.73906 5.81038C3.89618 5.8138 4.05134 5.81038 4.20728 5.81038C4.26031 5.81511 4.3136 5.80555 4.36244 5.78256C4.40472 5.76008 4.44038 5.72515 4.46537 5.68172C4.49036 5.63829 4.50369 5.5881 4.50385 5.53684V4.98933C4.50258 4.92066 4.47762 4.85504 4.43394 4.80554C4.39026 4.75604 4.33107 4.72628 4.26817 4.72221C4.1354 4.71878 4.00224 4.72221 3.86908 4.72221C3.8116 4.71944 3.754 4.72245 3.69703 4.7312ZM11.6859 4.7312C11.647 4.74269 11.6112 4.76427 11.5816 4.79408C11.552 4.82389 11.5294 4.86106 11.5158 4.90243C11.5012 4.95612 11.4957 5.01226 11.4997 5.06809V5.55225C11.5027 5.62019 11.5288 5.68449 11.573 5.73255C11.6171 5.78061 11.6762 5.80897 11.7385 5.81209C11.898 5.81466 12.0575 5.81209 12.217 5.81209C12.2686 5.81565 12.3201 5.80412 12.3662 5.7787C12.4058 5.75535 12.4388 5.72087 12.462 5.67886C12.4851 5.63685 12.4975 5.58884 12.4978 5.53984V4.99018C12.4965 4.92212 12.4719 4.85707 12.4288 4.80779C12.3857 4.75852 12.3272 4.72861 12.2649 4.72392C12.1278 4.72007 11.9899 4.72392 11.8536 4.72392C11.7974 4.72024 11.741 4.7234 11.6855 4.73334L11.6859 4.7312ZM3.69664 6.36645C3.64259 6.38046 3.59434 6.41361 3.55944 6.46071C3.52454 6.50781 3.50496 6.5662 3.50377 6.62673C3.50377 6.81422 3.50181 7.00215 3.50377 7.18965C3.50753 7.25842 3.535 7.3231 3.58067 7.37074C3.62634 7.41837 3.68685 7.44543 3.75006 7.44649H4.2607C4.32306 7.44337 4.38209 7.41501 4.42626 7.36695C4.47044 7.31889 4.49656 7.2546 4.49953 7.18665V6.62715C4.49842 6.55799 4.47327 6.49187 4.42916 6.44213C4.38505 6.39239 4.32527 6.36274 4.26188 6.35918C4.12519 6.35618 3.98692 6.35918 3.8514 6.35918C3.79972 6.35636 3.74791 6.35879 3.69664 6.36645V6.36645ZM11.6843 6.36902C11.6458 6.38038 11.6104 6.40163 11.581 6.43097C11.5517 6.46032 11.5291 6.49691 11.5154 6.53769C11.5008 6.59121 11.4953 6.64723 11.4993 6.70292V7.18708C11.5022 7.25503 11.5282 7.31937 11.5723 7.36751C11.6164 7.41565 11.6754 7.44412 11.7377 7.44735C11.9086 7.44949 12.0795 7.44735 12.2507 7.44735C12.3143 7.44626 12.3751 7.41891 12.4209 7.37084C12.4667 7.32277 12.494 7.25755 12.4974 7.18836C12.4998 7.00087 12.4974 6.81337 12.4974 6.6263C12.4961 6.55831 12.4715 6.49331 12.4285 6.44405C12.3855 6.39479 12.3271 6.36482 12.2649 6.36003C12.1278 6.35575 11.9899 6.36003 11.854 6.36003C11.7975 6.35519 11.7407 6.35735 11.6847 6.36645L11.6843 6.36902Z" fill="#FFB946"/>
<path d="M3.00363 8.00471H3.60887C3.64214 8.0056 3.67532 8.00875 3.70824 8.01412C3.64263 8.02841 3.58489 8.07039 3.5476 8.13089C3.51259 8.19815 3.49737 8.27549 3.504 8.35246V8.79946C3.50385 8.83807 3.51069 8.87633 3.52414 8.91205C3.53758 8.94777 3.55737 8.98025 3.58236 9.00763C3.60735 9.03501 3.63706 9.05674 3.66978 9.0716C3.7025 9.08645 3.73759 9.09412 3.77304 9.09418H4.24121C4.30354 9.09279 4.36346 9.06769 4.41059 9.02324C4.45772 8.97879 4.48908 8.91778 4.49925 8.85079C4.50239 8.65959 4.49925 8.46582 4.49925 8.27632C4.49841 8.21354 4.47753 8.15303 4.44019 8.10518C4.40285 8.05734 4.35138 8.02514 4.29462 8.01412C4.3273 8.00914 4.36021 8.00614 4.3932 8.00513H7.0011V9.6032C7.81986 9.06965 8.63823 8.53525 9.45621 8C9.53476 8.0077 9.60978 8.00299 9.68676 8.00428H11.5488C11.6013 8.00209 11.6539 8.00496 11.7059 8.01283C11.6646 8.02104 11.6259 8.04042 11.5933 8.0692C11.5607 8.09798 11.5353 8.13523 11.5194 8.17751C11.5023 8.23355 11.4963 8.29287 11.5017 8.35161V8.78534C11.4994 8.82537 11.5048 8.86547 11.5174 8.90312C11.5301 8.94076 11.5498 8.97513 11.5753 9.00404C11.6009 9.03296 11.6316 9.05578 11.6656 9.07108C11.6997 9.08637 11.7363 9.0938 11.7731 9.09289H12.2287C12.2983 9.09317 12.3653 9.06397 12.4156 9.01147C12.4659 8.95896 12.4955 8.88724 12.4981 8.81144V8.39053C12.5072 8.3042 12.4935 8.21684 12.4588 8.13859C12.4407 8.10657 12.4166 8.07896 12.3883 8.05747C12.3599 8.03599 12.3278 8.02108 12.2939 8.01369C12.3225 8.00864 12.3513 8.0055 12.3803 8.00428H12.9981C13.0024 8.74043 12.9981 9.47701 12.9981 10.2136V12.9054C12.9969 13.1643 12.9118 13.4144 12.7577 13.6116C12.6012 13.8123 12.383 13.9443 12.1438 13.9829C12.0158 13.9967 11.8871 14.0014 11.7585 13.997H4.35825C4.17893 14.0046 3.99934 13.9977 3.82096 13.9765C3.63504 13.9388 3.46269 13.8446 3.32372 13.7049C3.18476 13.5653 3.08483 13.3857 3.03545 13.1869C3.01067 13.0827 2.99878 12.9754 3.0001 12.8678V8.39096C3.00285 8.26264 2.99931 8.13346 3.00363 8.00471V8.00471ZM3.70863 9.64854C3.64824 9.65969 3.59403 9.69548 3.55703 9.74863C3.52016 9.80681 3.50169 9.87648 3.5044 9.9471V10.4441C3.50714 10.5199 3.53675 10.5916 3.58699 10.6441C3.63723 10.6965 3.70421 10.7258 3.77383 10.7256H4.27773C4.34293 10.7132 4.40169 10.6752 4.44282 10.6187C4.48395 10.5623 4.50459 10.4913 4.50082 10.4193V9.90989C4.50099 9.87307 4.4941 9.83663 4.48057 9.80289C4.46704 9.76915 4.44718 9.73886 4.42227 9.71398C4.36909 9.66456 4.30086 9.63861 4.23099 9.64126H3.78482C3.75927 9.64109 3.73376 9.64352 3.70863 9.64854V9.64854ZM11.7075 9.64854C11.6524 9.65806 11.602 9.68789 11.5646 9.73305C11.5273 9.77821 11.5054 9.83596 11.5025 9.89663V10.4193C11.5002 10.4593 11.5055 10.4994 11.5182 10.5369C11.5308 10.5745 11.5505 10.6089 11.576 10.6377C11.6015 10.6666 11.6322 10.6894 11.6662 10.7047C11.7002 10.7199 11.7367 10.7274 11.7735 10.7265C11.9416 10.7265 12.1101 10.7286 12.2782 10.7265C12.3403 10.7129 12.3962 10.6763 12.4364 10.623C12.4766 10.5697 12.4987 10.5029 12.4989 10.4339V10.0006C12.5079 9.916 12.4909 9.83055 12.4506 9.75761C12.4264 9.72211 12.3949 9.69328 12.3586 9.67344C12.3223 9.65361 12.2822 9.64332 12.2416 9.6434H11.8669C11.8138 9.63972 11.7604 9.6413 11.7075 9.64811V9.64854ZM3.70902 11.2812C3.67765 11.2867 3.6476 11.299 3.62063 11.3173C3.59366 11.3356 3.5703 11.3595 3.55192 11.3878C3.51785 11.4446 3.50083 11.5116 3.50322 11.5794V12.0636C3.50367 12.1352 3.5277 12.2043 3.57094 12.2583C3.61418 12.3123 3.67376 12.3477 3.73887 12.3579H4.2793C4.3445 12.3454 4.40322 12.3073 4.44428 12.2507C4.48534 12.1942 4.50588 12.1232 4.502 12.0512V11.5426C4.50223 11.5057 4.49536 11.4692 4.48183 11.4354C4.4683 11.4015 4.44841 11.3712 4.42344 11.3463C4.37062 11.2971 4.30282 11.2711 4.23335 11.2735H3.78522C3.75965 11.2735 3.73414 11.2761 3.70902 11.2812V11.2812ZM11.7063 11.2812C11.6616 11.289 11.6199 11.3102 11.5857 11.3425C11.5515 11.3748 11.5264 11.4168 11.5131 11.4639C11.502 11.5099 11.4982 11.5576 11.5017 11.6051V12.1162C11.5121 12.1829 11.5435 12.2436 11.5905 12.2879C11.6375 12.3322 11.6972 12.3572 11.7593 12.3587H12.2279C12.2643 12.3586 12.3004 12.3505 12.3339 12.3348C12.3674 12.3191 12.3976 12.2962 12.4228 12.2675C12.4479 12.2387 12.4675 12.2048 12.4803 12.1676C12.4931 12.1305 12.4989 12.0909 12.4973 12.0512V11.5533C12.4975 11.5074 12.4873 11.4622 12.4678 11.4215C12.4482 11.3809 12.4198 11.3461 12.385 11.3202C12.2879 11.2737 12.1809 11.2574 12.0759 11.2731C11.9534 11.2774 11.8288 11.2646 11.7067 11.2808L11.7063 11.2812Z" fill="#E9A639"/>
<path d="M7.00032 6C8.00005 6.66719 8.99995 7.33386 10 8L9.95278 8.03409C8.96847 8.6887 7.98463 9.344 7.00126 10V8.04039C7.00079 7.36113 6.99937 6.68188 7.00032 6V6Z" fill="white"/>
</svg>
