<svg width="20" height="20" viewBox="0 0 20 20" fill="none" xmlns="http://www.w3.org/2000/svg">
<path d="M16.6914 5.63672L12.4883 1.43359C12.3711 1.31641 12.2129 1.25 12.0469 1.25H3.75C3.4043 1.25 3.125 1.5293 3.125 1.875V18.125C3.125 18.4707 3.4043 18.75 3.75 18.75H16.25C16.5957 18.75 16.875 18.4707 16.875 18.125V6.08008C16.875 5.91406 16.8086 5.75391 16.6914 5.63672ZM15.4336 6.36719H11.7578V2.69141L15.4336 6.36719ZM15.4688 17.3438H4.53125V2.65625H10.4297V6.875C10.4297 7.09256 10.5161 7.30121 10.67 7.45505C10.8238 7.60889 11.0324 7.69531 11.25 7.69531H15.4688V17.3438ZM10.3145 9.21875H9.68555C9.57812 9.21875 9.48437 9.29102 9.45898 9.39648L8.48828 13.2812L7.58789 9.40039C7.5625 9.29492 7.46875 9.21875 7.35937 9.21875H6.66797C6.63204 9.21881 6.59661 9.22711 6.56439 9.24301C6.53218 9.25892 6.50405 9.28201 6.48216 9.3105C6.46027 9.33899 6.44522 9.37212 6.43815 9.40734C6.43109 9.44257 6.4322 9.47895 6.44141 9.51367L7.89062 14.9043C7.91797 15.0059 8.01172 15.0781 8.11719 15.0781H8.74219C8.84766 15.0781 8.94141 15.0078 8.96875 14.9043L10 11.0566L11.0312 14.9043C11.0586 15.0059 11.1523 15.0781 11.2578 15.0781H11.8789C11.9844 15.0781 12.0781 15.0078 12.1055 14.9043L13.5586 9.51367C13.5677 9.47895 13.5688 9.4426 13.5617 9.40741C13.5546 9.37222 13.5395 9.33912 13.5176 9.31065C13.4958 9.28218 13.4677 9.25909 13.4355 9.24316C13.4033 9.22723 13.3679 9.21888 13.332 9.21875H12.6367C12.5273 9.21875 12.4336 9.29492 12.4082 9.40039L11.5137 13.2891L10.541 9.39648C10.5156 9.29102 10.4219 9.21875 10.3145 9.21875V9.21875Z" fill="#233A84"/>
</svg>
