<svg width="20" height="20" viewBox="0 0 18 18" fill="none" xmlns="http://www.w3.org/2000/svg">
<path d="M13.6914 4.63672L9.48828 0.433594C9.37109 0.316406 9.21289 0.25 9.04688 0.25H0.75C0.404297 0.25 0.125 0.529297 0.125 0.875V17.125C0.125 17.4707 0.404297 17.75 0.75 17.75H13.25C13.5957 17.75 13.875 17.4707 13.875 17.125V5.08008C13.875 4.91406 13.8086 4.75391 13.6914 4.63672ZM12.4336 5.36719H8.75781V1.69141L12.4336 5.36719ZM12.4688 16.3438H1.53125V1.65625H7.42969V5.875C7.42969 6.09256 7.51611 6.30121 7.66995 6.45505C7.82379 6.60889 8.03244 6.69531 8.25 6.69531H12.4688V16.3438ZM7.31445 8.21875H6.68555C6.57812 8.21875 6.48437 8.29102 6.45898 8.39648L5.48828 12.2812L4.58789 8.40039C4.5625 8.29492 4.46875 8.21875 4.35938 8.21875H3.66797C3.63204 8.21881 3.59661 8.22711 3.56439 8.24301C3.53218 8.25892 3.50405 8.28201 3.48216 8.3105C3.46027 8.33899 3.44522 8.37212 3.43815 8.40734C3.43109 8.44257 3.4322 8.47894 3.44141 8.51367L4.89062 13.9043C4.91797 14.0059 5.01172 14.0781 5.11719 14.0781H5.74219C5.84766 14.0781 5.94141 14.0078 5.96875 13.9043L7 10.0566L8.03125 13.9043C8.05859 14.0059 8.15234 14.0781 8.25781 14.0781H8.87891C8.98438 14.0781 9.07812 14.0078 9.10547 13.9043L10.5586 8.51367C10.5677 8.47895 10.5688 8.4426 10.5617 8.40741C10.5546 8.37222 10.5395 8.33912 10.5176 8.31065C10.4958 8.28218 10.4677 8.25909 10.4355 8.24316C10.4033 8.22723 10.3679 8.21888 10.332 8.21875H9.63672C9.52734 8.21875 9.43359 8.29492 9.4082 8.40039L8.51367 12.2891L7.54102 8.39648C7.51563 8.29102 7.42187 8.21875 7.31445 8.21875Z" fill="#233A84"/>
</svg>
