<svg width="35" height="35" viewBox="0 0 16 16" fill="none" xmlns="http://www.w3.org/2000/svg">
<path d="M9.48469 1H4.77833C4.30669 1 3.85436 1.17555 3.52086 1.48803C3.18736 1.80052 3 2.22433 3 2.66625V12.6637C3 13.1057 3.18736 13.5295 3.52086 13.842C3.85436 14.1544 4.30669 14.33 4.77833 14.33H11.8917C12.3633 14.33 12.8156 14.1544 13.1491 13.842C13.4826 13.5295 13.67 13.1057 13.67 12.6637V4.92152C13.6699 4.70058 13.5762 4.4887 13.4095 4.3325L10.1133 1.24411C9.94662 1.08785 9.72049 1.00005 9.48469 1V1ZM9.66875 3.91594V2.24969L12.3362 4.74906H10.5579C10.3221 4.74906 10.0959 4.66129 9.92918 4.50505C9.76243 4.3488 9.66875 4.1369 9.66875 3.91594ZM6.09875 6.73107L7.01992 10.1835L7.90642 7.13846C7.9323 7.05057 7.98823 6.97306 8.06565 6.91782C8.14307 6.86258 8.23769 6.83267 8.335 6.83267C8.43231 6.83267 8.52693 6.86258 8.60435 6.91782C8.68177 6.97306 8.7377 7.05057 8.76358 7.13846L9.65008 10.1835L10.5713 6.73107C10.602 6.62613 10.6753 6.53662 10.7755 6.48168C10.8758 6.42673 10.995 6.41072 11.1076 6.43706C11.2203 6.4634 11.3175 6.53 11.3784 6.62262C11.4394 6.71524 11.4592 6.82653 11.4337 6.93268L10.1 11.9314C10.076 12.0207 10.0211 12.0999 9.94396 12.1568C9.8668 12.2138 9.77171 12.2451 9.67351 12.2461C9.57531 12.247 9.47954 12.2175 9.40115 12.1621C9.32276 12.1067 9.26615 12.0285 9.24017 11.9398L8.335 8.83304L7.42983 11.9406C7.40385 12.0293 7.34724 12.1075 7.26885 12.1629C7.19046 12.2183 7.09469 12.2479 6.99649 12.2469C6.89829 12.246 6.8032 12.2146 6.72604 12.1577C6.64889 12.1007 6.59402 12.0215 6.57 11.9323L5.23625 6.93352C5.22058 6.87998 5.21649 6.82404 5.22423 6.769C5.23196 6.71396 5.25135 6.66092 5.28127 6.61301C5.31119 6.56509 5.35102 6.52326 5.39844 6.48997C5.44586 6.45668 5.4999 6.43262 5.55739 6.41918C5.61488 6.40574 5.67465 6.4032 5.7332 6.41172C5.79175 6.42023 5.84789 6.43963 5.89833 6.46876C5.94876 6.4979 5.99247 6.53618 6.02689 6.58137C6.06131 6.62656 6.08574 6.67774 6.09875 6.7319V6.73107Z" fill="#4483E1"/>
</svg>
